<?xml version="1.0" standalone="no"?>
<!DOCTYPE svg PUBLIC "-//W3C//DTD SVG 20010904//EN"
 "http://www.w3.org/TR/2001/REC-SVG-20010904/DTD/svg10.dtd">
<svg version="1.0" xmlns="http://www.w3.org/2000/svg"
 width="24.000000pt" height="24.000000pt" viewBox="0 0 24.000000 24.000000"
 preserveAspectRatio="xMidYMid meet">
<metadata>
Created by potrace 1.16, written by Peter Selinger 2001-2019
</metadata>
<g transform="translate(0.000000,24.000000) scale(0.100000,-0.100000)"
fill="#000000" stroke="none">
<path d="M72 215 c-11 -14 -26 -25 -34 -25 -8 0 -19 -5 -26 -12 -15 -15 -16
-74 -2 -83 6 -3 10 -19 10 -34 0 -44 26 -59 100 -59 74 0 100 15 100 59 0 15
5 31 10 34 14 9 13 68 -2 83 -7 7 -18 12 -26 12 -8 0 -23 11 -34 25 -26 33
-70 33 -96 0z m78 -31 c7 -17 15 -24 25 -20 18 7 46 -20 39 -39 -3 -7 -12 -16
-20 -19 -9 -4 -12 -14 -8 -35 7 -36 -16 -52 -47 -32 -15 8 -23 8 -38 0 -31
-20 -54 -4 -47 32 4 21 1 31 -8 35 -8 3 -17 12 -20 19 -7 19 21 46 39 39 10
-4 18 3 25 20 13 35 47 35 60 0z"/>
</g>
</svg>
